P3
5 5
255
205
164
164
105
76
76
236
164
164
25
6
6
236
164
164
227
141
141
166
100
100
235
178
178
203
107
107
225
111
111
210
127
127
25
6
6
190
93
93
67
39
39
240
183
183
192
119
119
30
9
9
124
70
70
60
37
37
237
169
169
233
147
147
171
87
87
205
101
101
231
139
139
231
139
139
